<?xml version="1.0" encoding="utf-8"?>
<!-- Generator: Adobe Illustrator 24.0.3, SVG Export Plug-In . SVG Version: 6.00 Build 0)  -->
<svg version="1.1" id="Layer_1" xmlns="http://www.w3.org/2000/svg" xmlns:xlink="http://www.w3.org/1999/xlink" x="0px" y="0px"
	 viewBox="0 0 50 50" style="enable-background:new 0 0 50 50;" xml:space="preserve">
<style type="text/css">
	.st0{fill:#848484;}
	.st1{enable-background:new    ;}
</style>
<path class="st0" d="M14.77,10.86C7.17,10.86,1,17.03,1,24.63C1,36.28,14.77,49,14.77,49s13.77-12.71,13.77-24.37
	C28.54,17.03,22.38,10.86,14.77,10.86L14.77,10.86z M14.77,30.89c-3.45,0-6.25-2.8-6.25-6.25s2.8-6.25,6.25-6.25s6.25,2.8,6.25,6.25
	S18.22,30.88,14.77,30.89z"/>
<g class="st1">
	<path class="st0" d="M29.28,13.19v-4.7h7.38V1.11h4.74v7.38h7.38v4.7H41.4v7.42h-4.74v-7.42H29.28z"/>
</g>
</svg>
