<?xml version="1.0" encoding="utf-8"?>
<!-- Generator: Adobe Illustrator 24.0.1, SVG Export Plug-In . SVG Version: 6.00 Build 0)  -->
<svg version="1.1" id="Layer_1" xmlns="http://www.w3.org/2000/svg" xmlns:xlink="http://www.w3.org/1999/xlink" x="0px" y="0px"
	 viewBox="0 0 200 200" style="enable-background:new 0 0 200 200;" xml:space="preserve">
<style type="text/css">
	.st0{fill:#DBBD3E;}
</style>
<g>
	<path class="st0" d="M190.73,164.02l-80.7-139.7c-4.46-7.7-15.61-7.7-20.07,0l-80.7,139.7c-4.46,7.7,1.01,17.44,9.93,17.44H180.6
		C189.72,181.46,195.19,171.72,190.73,164.02z M97.47,67.1c4.87-1.22,9.73,1.22,11.96,5.68c0.81,1.62,1.01,3.45,0.81,5.07
		c-0.41,5.07-0.61,10.14-0.81,15.41c-0.41,7.91-1.01,16.02-1.42,23.92c-0.2,2.43-0.2,4.87-0.41,7.5c-0.2,4.26-3.45,7.5-7.7,7.5
		c-4.06,0-7.5-3.24-7.7-7.3c-0.61-12.37-1.42-24.74-2.03-37.1c-0.2-3.24-0.41-6.69-0.61-9.93C89.56,72.98,92.8,68.32,97.47,67.1z
		 M100.1,159.96c-5.68,0-10.14-4.66-10.14-10.34c0-5.68,4.66-10.34,10.34-10.34s10.14,4.66,10.14,10.54
		C110.24,155.3,105.58,159.96,100.1,159.96z"/>
</g>
</svg>
