<?xml version="1.0" encoding="utf-8"?>
<!-- Generator: Adobe Illustrator 24.0.1, SVG Export Plug-In . SVG Version: 6.00 Build 0)  -->
<svg version="1.1" xmlns="http://www.w3.org/2000/svg" xmlns:xlink="http://www.w3.org/1999/xlink" x="0px" y="0px"
	 viewBox="0 0 180 180.56" style="enable-background:new 0 0 180 180.56;" xml:space="preserve">
<style type="text/css">
	.st0{fill:#F5B345;}
</style>
<g id="Layer_1">
</g>
<g id="Layer_2">
</g>
<g id="Layer_3">
	<path class="st0" d="M150.75,67.61c0,2.5,0,4.99,0,7.49v7.63c0.01,1.07-0.04,2.14-0.14,3.21c-0.24,0.71-0.57,1.39-0.97,2.03
		c-0.84,1.1-2.01,1.89-3.34,2.27c-0.9,0.1-1.8,0.13-2.7,0.1c-0.41,0-0.5,0.15-0.5,0.52c0,2.33,0,4.67,0,7v30.37
		c0.02,0.98-0.03,1.95-0.14,2.92c-0.51,2.29-2.3,4.08-4.59,4.59c-0.82,0.09-1.65,0.13-2.47,0.12c-0.28,0-0.43,0.07-0.43,0.39
		c0,2.41,0,4.81,0.05,7.22l-0.2,1.8c-0.31,0.91-0.73,1.79-1.25,2.6c-1.05,1.38-2.51,2.41-4.16,2.93c-2.39,0.2-4.78,0.24-7.17,0.14
		c-1.44,0.11-2.9,0.06-4.33-0.13c-1.57-0.48-2.96-1.41-4.01-2.67c-0.69-0.95-1.21-2.01-1.52-3.15l-0.15-1.52c0-2.41,0-4.81,0-7.22
		c0-0.34-0.12-0.43-0.44-0.43h-7.22H74.77c-2.36,0-4.71,0-7.07,0c-0.32,0-0.44,0.1-0.43,0.43c0,2.41,0,4.81,0,7.22l-0.12,1.26
		c-0.02,0.04-0.02,0.09,0,0.13l-0.05,0.26c-0.56,2.3-2.13,4.22-4.28,5.21c-0.85,0.41-1.79,0.63-2.74,0.63c-2.7,0-5.41-0.06-8.1,0
		c-3.26-0.02-6.14-2.13-7.13-5.24l-0.19-0.59l-0.18-1.68c0-1.97,0-3.95,0-5.92c0-1.72,0-1.72-1.76-1.85
		c-1.84-0.51-3.45-1.64-4.54-3.21c-0.47-0.79-0.86-1.62-1.15-2.49l-0.18-1.8v-7.49c0-2.54,0-5.08,0-7.62V97.82c0-2.36,0-4.71,0-7.06
		c0-0.31-0.07-0.48-0.42-0.46c-1.02,0.07-2.03-0.11-3.04-0.13c-0.05,0-0.09-0.11-0.14-0.14c-1.92-0.63-3.39-2.19-3.88-4.15
		c-0.11-1.07-0.16-2.14-0.15-3.21V67.43c-0.01-1.07,0.04-2.14,0.16-3.21c0.3-0.88,0.75-1.7,1.35-2.41c0.84-0.85,1.88-1.48,3.02-1.83
		c0.87,0,1.74-0.04,2.62-0.04c0.33,0,0.5-0.06,0.49-0.45c0-2.38,0-4.77,0-7.16c0-0.9,0-1.8,0-2.7c-0.03-0.71-0.01-1.43,0.06-2.14
		c0.37-1.94,1.33-3.72,2.74-5.1c2.01-2.01,4.36-3.66,6.93-4.89c1.74-0.91,3.59-1.56,5.38-2.34c2.51-0.8,5.05-1.6,7.62-2.26
		c2.57-0.66,5.08-1.09,7.64-1.55c2.41-0.35,4.81-0.8,7.29-0.95c0.11-0.02,0.22-0.05,0.33-0.09c0.8-0.06,1.6-0.1,2.41-0.17l5.08-0.4
		c3.53-0.07,7.06-0.2,10.59-0.12c3.69,0.08,7.37,0.25,11.05,0.64c0.36,0,0.73,0,1.1,0.05l7.64,1.05c2.55,0.45,5.09,0.95,7.61,1.54
		s5.12,1.4,7.61,2.29l5.28,2.21l2.22,1.22l0.87,0.57c1.49,0.93,2.86,2.04,4.06,3.32c1.79,1.93,2.92,4.12,2.72,6.86
		c-0.07,0.99,0,1.98,0,2.98c0,2.41,0,4.74,0,7.12c0,0.4,0.14,0.51,0.52,0.51c0.94-0.06,1.88-0.01,2.82,0.13
		c2.11,0.59,3.72,2.3,4.18,4.44C150.8,65.56,150.68,66.59,150.75,67.61z M130.69,113.08c-0.6-1.15-1.54-2.1-2.69-2.71
		c-2.39-1.5-5.44-1.47-7.8,0.07c-1.06,0.56-1.93,1.42-2.5,2.48c-1.47,2.33-1.52,5.28-0.13,7.66c0.59,1.22,1.57,2.2,2.78,2.8
		c2.41,1.47,5.45,1.42,7.81-0.14c1.05-0.58,1.9-1.45,2.46-2.51c1.49-2.33,1.51-5.31,0.06-7.67L130.69,113.08z M52.02,110.36
		c-1.15,0.61-2.09,1.55-2.7,2.7c-1.42,2.36-1.4,5.31,0.05,7.65c0.59,1.13,1.51,2.04,2.65,2.62c2.33,1.47,5.3,1.47,7.63,0
		c1.16-0.58,2.12-1.51,2.73-2.66c1.44-2.34,1.44-5.28,0-7.62c-0.61-1.19-1.58-2.16-2.77-2.76
		C57.27,108.89,54.34,108.91,52.02,110.36L52.02,110.36z M93.83,75.06c-0.07,2.54-0.07,5.09,0,7.64c-0.07,2.54-0.07,5.07,0,7.61
		c0,2.41,0,4.81-0.05,7.16c0,0.24,0.08,0.4,0.35,0.39c1.17,0.04,2.34,0.02,3.51-0.06h7.48c1.52,0.14,3.03,0.05,4.54,0.06
		c1.03,0.06,2.06,0.04,3.09-0.06h7.63c1.82,0.09,3.6-0.55,4.94-1.79c1.7-1.4,2.65-3.51,2.59-5.71c0.09-2.54,0.08-5.07,0-7.61
		c0.09-2.54,0.09-5.09,0-7.64c0.08-2.5,0.08-4.99,0-7.49c0.02-0.09,0.04-0.18,0.05-0.26c-0.12-4.1-3.48-7.36-7.58-7.35H97.65h-3.39
		c-0.29,0-0.47,0.05-0.47,0.41c0,2.41,0,4.81,0.05,7.22s-0.07,5,0,7.49L93.83,75.06z M86.19,90.31c0.07-2.55,0.07-5.1,0-7.64
		c0.07-2.54,0.07-5.08,0-7.61c0.08-2.5,0.08-5,0-7.5s0-4.81,0.06-7.22c0-0.37-0.19-0.41-0.48-0.41h-3.38H59.65
		c-1.68-0.06-3.32,0.49-4.62,1.56c-1.91,1.41-3,3.67-2.91,6.05c-0.1,2.5-0.09,5.01,0,7.5c-0.09,2.54-0.09,5.08,0,7.62
		c-0.08,0.73-0.1,1.46-0.05,2.19c0,1.81-0.08,3.63,0.05,5.44c-0.26,3.91,3.43,7.58,7.53,7.49h22.74h3.39c0.3,0,0.47-0.06,0.47-0.41
		c-0.02-2.31-0.04-4.64-0.05-7L86.19,90.31z M105.12,44.76c-2.49-0.07-4.98-0.07-7.48,0c-2.55-0.08-5.1-0.08-7.64,0
		c-2.54-0.07-5.08-0.07-7.61,0c-2.5-0.08-5-0.08-7.49,0c-1.98-0.11-3.96-0.11-5.94,0c-0.97,0.03-1.73,0.84-1.7,1.81
		c0,0.03,0,0.06,0.01,0.09c0,1.22,0,2.41,0,3.67c-0.07,1,0.69,1.87,1.7,1.94c0.07,0,0.13,0.01,0.2,0c1.92,0,3.83,0,5.74,0h30.23
		c1.89,0,3.78,0,5.67,0c1.02,0.07,1.9-0.71,1.97-1.73c0.01-0.1,0-0.2,0-0.29v-3.53c0.1-1.01-0.64-1.91-1.65-2.01
		c-0.06-0.01-0.12-0.01-0.19-0.01c-1.93,0.03-3.87,0.1-5.8,0.1L105.12,44.76z"/>
</g>
</svg>
