<?xml version="1.0" encoding="utf-8"?>
<!-- Generator: Adobe Illustrator 19.0.0, SVG Export Plug-In . SVG Version: 6.00 Build 0)  -->
<svg version="1.1" id="Layer_1" xmlns="http://www.w3.org/2000/svg" xmlns:xlink="http://www.w3.org/1999/xlink" x="0px" y="0px"
	 viewBox="0 0 612 792" style="enable-background:new 0 0 612 792;" xml:space="preserve">
<path id="XMLID_3_" d="M321.3,656c-66.7,0-129.4-26-176.6-73.2S71.6,472.9,71.6,406.2c0-66.7,26-129.4,73.2-176.6
	c47.2-47.2,109.9-73.2,176.6-73.2c66.7,0,129.4,26,176.6,73.2c47.2,47.2,73.2,109.9,73.2,176.6c0,66.7-26,129.4-73.2,176.6
	S388.1,656,321.3,656z M321.3,236.4c-93.6,0-169.8,76.2-169.8,169.8c0,93.6,76.2,169.8,169.8,169.8c93.6,0,169.8-76.2,169.8-169.8
	C491.1,312.6,415,236.4,321.3,236.4z"/>
</svg>
