<?xml version="1.0" encoding="utf-8"?>
<!-- Generator: Adobe Illustrator 24.0.1, SVG Export Plug-In . SVG Version: 6.00 Build 0)  -->
<svg version="1.1" id="Layer_1" xmlns="http://www.w3.org/2000/svg" xmlns:xlink="http://www.w3.org/1999/xlink" x="0px" y="0px"
	 viewBox="0 0 78.12 71.36" style="enable-background:new 0 0 78.12 71.36;" xml:space="preserve">
<style type="text/css">
	.st0{fill:#818181;}
</style>
<g id="icono_filtrar">
	<path class="st0" d="M32.18,70.64c-0.88,0-1.78-0.25-2.56-0.71c-1.54-0.92-2.5-2.6-2.51-4.39V39.88L2.81,11.46
		C0.56,8.83,0.87,4.86,3.5,2.61C4.63,1.64,6.08,1.1,7.58,1.1h63.58c0,0,0.01,0,0.02,0c2.43,0,4.67,1.43,5.69,3.64
		c1.06,2.2,0.7,4.86-0.94,6.73l-24.28,28.4v17.51c0.01,1.83-0.99,3.55-2.61,4.46l-14.29,8.12c-0.76,0.44-1.64,0.67-2.52,0.67
		C32.21,70.64,32.19,70.64,32.18,70.64z M31.51,64.27C31.51,64.27,31.5,64.27,31.51,64.27L31.51,64.27z M8.19,7.66l25.48,29.8v25.58
		l11.42-6.49V37.46l25.47-29.8H8.19z M45.09,57.4c0,0.01,0,0.01,0,0.02V57.4z M45.82,56.14c0,0-0.01,0-0.01,0.01L45.82,56.14z
		 M71.17,7.66L71.17,7.66L71.17,7.66L71.17,7.66z"/>
</g>
</svg>
