<?xml version="1.0" encoding="utf-8"?>
<!-- Generator: Adobe Illustrator 24.0.1, SVG Export Plug-In . SVG Version: 6.00 Build 0)  -->
<svg version="1.1" id="Layer_1" xmlns="http://www.w3.org/2000/svg" xmlns:xlink="http://www.w3.org/1999/xlink" x="0px" y="0px"
	 viewBox="0 0 200 200" style="enable-background:new 0 0 200 200;" xml:space="preserve">
<style type="text/css">
	.st0{fill:none;stroke:#333333;stroke-width:3;stroke-miterlimit:10;}
	.st1{fill:#FFFFFF;stroke:#333333;stroke-width:6;stroke-miterlimit:10;}
	.st2{fill:#FFFFFF;}
	.st3{opacity:0.47;fill:#333333;}
	.st4{fill:#818181;}
	.st5{fill:none;}
	.st6{fill:#4068B2;}
</style>
<path class="st0" d="M-178.09-744.95"/>
<path class="st0" d="M-178.09,321.47"/>
<path class="st0" d="M-178.09-744.95"/>
<path class="st0" d="M-178.09,321.47"/>
<path class="st1" d="M-213.74-813.63"/>
<path class="st1" d="M-213.74,373.37"/>
<path class="st2" d="M-178.1-754.22"/>
<path class="st2" d="M-178.1,320.45"/>
<path class="st3" d="M-182-668.63"/>
<path class="st3" d="M-182,320.7"/>
<g>
	<path class="st4" d="M-123.7-610.81"/>
</g>
<path class="st2" d="M-123.7-610.81"/>
<path class="st5" d="M-178.09-744.95"/>
<path class="st5" d="M-178.09,321.47"/>
<path class="st0" d="M-178.2-749.86"/>
<path class="st0" d="M-178.2,316.55"/>
<g>
	<g>
		<g>
			<path class="st6" d="M147.91,84.44c-10.23-10.23-24.2-9.37-34.24,0.29l-6.03-6.03c-0.38-0.38-0.86-0.48-1.24-0.19
				c-0.48,0.19-0.86,0.48-0.86,0.86l-2.87,23.63c0,0.38,0,0.67,0.38,1.05s0.67,0.38,1.05,0.38l23.63-2.87
				c0.38,0,0.67-0.38,0.86-0.86c0.19-0.48,0-1.05-0.19-1.24l-6.03-6.03c13.1-12.91,22.67-9.09,25.44-8.8
				C148.29,84.72,148.19,84.72,147.91,84.44z"/>
			<path class="st6" d="M113.86,114.85c10.23,10.23,24.2,9.37,34.15-0.29l6.03,6.03c0.38,0.38,0.86,0.48,1.24,0.19
				c0.48-0.19,0.86-0.48,0.86-0.86L159,96.3c0-0.38,0-0.67-0.38-1.05c-0.38-0.38-0.67-0.38-1.05-0.38l-23.63,2.87
				c-0.38,0-0.67,0.38-0.86,0.86c-0.19,0.48,0,1.05,0.19,1.24l6.03,6.03c-13.01,12.91-22.48,9.18-25.25,8.9
				C113.47,114.57,113.57,114.57,113.86,114.85z"/>
		</g>
	</g>
	<path class="st6" d="M41.06,96.56c1.37,1.08,3.35,0.85,4.43-0.52c1.08-1.37,0.85-3.35-0.52-4.43c-9.73-7.69-15.31-19.2-15.31-31.59
		c0-12.74,5.83-24.45,16.01-32.13c1.39-1.05,1.67-3.03,0.62-4.42c-0.62-0.82-1.57-1.25-2.52-1.25c-0.66,0-1.33,0.21-1.9,0.64
		C30.1,31.74,23.35,45.28,23.35,60.02C23.35,74.34,29.8,87.66,41.06,96.56z"/>
	<path class="st6" d="M53.12,86.65c1.42,1,3.39,0.66,4.4-0.77c1-1.43,0.66-3.39-0.77-4.4c-7-4.92-11.18-12.95-11.18-21.47
		c0-8.86,4.44-17.06,11.87-21.93c1.46-0.96,1.86-2.91,0.91-4.37c-0.61-0.92-1.61-1.42-2.64-1.42c-0.59,0-1.2,0.17-1.73,0.52
		c-9.22,6.05-14.72,16.22-14.72,27.21C39.25,70.59,44.44,80.55,53.12,86.65z"/>
	<path class="st6" d="M65.8,76.71c1.57,0.75,3.46,0.09,4.21-1.48c0.76-1.57,0.09-3.46-1.48-4.21c-4.21-2.03-6.94-6.35-6.94-11
		c0-4.99,2.99-9.43,7.63-11.31c1.62-0.66,2.39-2.5,1.74-4.11c-0.5-1.23-1.68-1.97-2.92-1.97c-0.4,0-0.8,0.08-1.19,0.23
		c-7.03,2.85-11.57,9.59-11.57,17.16C55.28,67.09,59.41,73.64,65.8,76.71z"/>
	<path class="st6" d="M128.94,22.96c-1.64,0-2.97,1.32-2.98,2.96c-0.01,1.64,1.32,2.97,2.96,2.98c1.65,0,2.98-1.32,2.98-2.96
		C131.91,24.29,130.59,22.96,128.94,22.96z"/>
	<path class="st6" d="M161.12,12.68H96.76c-8.57,0-15.53,6.97-15.53,15.53v143.57c0,8.57,6.97,15.53,15.53,15.53h64.36
		c8.57,0,15.53-6.97,15.53-15.53V28.22C176.65,19.65,169.69,12.68,161.12,12.68z M170.34,171.79c0,5.09-4.14,9.22-9.22,9.22H96.76
		c-5.09,0-9.22-4.14-9.22-9.22v-6.38h82.8L170.34,171.79L170.34,171.79z M170.34,159.1h-82.8V40.9h82.8V159.1z M170.34,34.59h-82.8
		v-6.37c0-5.09,4.14-9.22,9.22-9.22h64.36c5.09,0,9.22,4.14,9.22,9.22V34.59z"/>
	<path class="st6" d="M119.04,176.36h19.8c1.74,0,3.16-1.41,3.16-3.16s-1.41-3.16-3.16-3.16h-19.8c-1.74,0-3.16,1.41-3.16,3.16
		S117.29,176.36,119.04,176.36z"/>
</g>
</svg>
