<?xml version="1.0" encoding="utf-8"?>
<!-- Generator: Adobe Illustrator 24.0.1, SVG Export Plug-In . SVG Version: 6.00 Build 0)  -->
<svg version="1.1" xmlns="http://www.w3.org/2000/svg" xmlns:xlink="http://www.w3.org/1999/xlink" x="0px" y="0px"
	 viewBox="0 0 180 180.56" style="enable-background:new 0 0 180 180.56;" xml:space="preserve">
<style type="text/css">
	.st0{fill:#94C544;}
</style>
<g id="Layer_1">
	<path class="st0" d="M155.8,99.18c-0.64,2.03-1.52,3.98-2.6,5.81c-1.15,2.04-2.41,4.01-3.76,5.92l-3.33,3.74
		c-2.6,2.45-5.57,4.46-8.81,5.97c-0.32,0.05-0.62,0.18-0.88,0.37c-3.06,1.09-6.26,1.76-9.5,1.98c-3.18,0.08-6.36-0.13-9.5-0.63
		c-2.82-0.61-5.61-1.39-8.34-2.34c-3.09-1.1-6.07-2.47-8.92-4.08c-0.35-0.2-0.61-0.46-0.91,0.16c-2.39,4.83-5.21,9.44-8.44,13.76
		c-0.07,0.1-0.13,0.2-0.18,0.3l-2.45,3.18c-2.01,2.31-4.12,4.53-6.28,6.71l-3.39,2.99c-2.81,2.25-5.78,4.29-8.89,6.12
		c-3.26,1.79-6.65,3.32-10.16,4.56c-3.16,0.93-6.39,1.62-9.66,2.07c-1.76,0.16-3.5,0.25-5.26,0.33c-1.69,0.24-3.34-0.64-4.08-2.18
		c-0.01-0.09-0.02-0.17-0.04-0.25c-0.7-1.88,0.26-3.97,2.14-4.67c0.41-0.15,0.84-0.23,1.27-0.23c1.99,0.06,3.98-0.1,5.94-0.47
		c3.32-0.37,6.58-1.2,9.68-2.45c2.35-0.83,4.61-1.89,6.75-3.16c4.76-2.73,9.09-6.16,12.83-10.18c0.66-0.57,1.25-1.21,1.76-1.91
		c2.74-3.01,5.2-6.27,7.35-9.73l0.42-0.68c0.99-1.44,1.89-2.94,2.69-4.5l-2.92,1.02c-3.15,0.96-6.39,1.61-9.67,1.93
		c-1.35-0.12-2.68,0.15-4.03,0.06c-1.85-0.11-3.66-0.39-5.49-0.63c-3.34-0.81-6.54-2.13-9.48-3.91l-4.22-3.21
		c-0.72-0.73-1.47-1.42-2.16-2.18c-1.19-1.32-2.34-2.68-3.5-4.03c-0.6-1.14-1.3-2.23-2.07-3.27c-1.8-3.12-3.41-6.36-4.82-9.68
		c-0.39-0.77-0.06-1.1,0.69-1.35c2.07-0.69,4.12-1.46,6.18-2.2c0.65-0.17,1.31-0.33,1.95-0.51c2.55-0.67,5.13-1.2,7.74-1.59
		c3.22-0.31,6.46-0.36,9.68-0.16c3.23,0.4,6.41,1.18,9.46,2.32c2.35,1.03,4.6,2.27,6.73,3.7l2.81,2.27c2.36,2.17,4.47,4.59,6.3,7.22
		l1.89,3.07l1.08-3.07c0.3-0.6,0.52-1.24,0.65-1.9c0.97-2.56,1.76-5.19,2.37-7.86c0.9-3.12,1.58-6.31,2.03-9.53
		c0.1-0.42,0.2-0.82,0.29-1.27c0.05-0.27,0-0.44-0.35-0.41c-1.45,0.16-2.91,0.29-4.36,0.43c-3.27,0.05-6.46-0.11-9.68-0.34
		c-0.53-0.17-1.08-0.25-1.63-0.25c-2.72-0.44-5.42-1.06-8.06-1.85c-3.38-1.19-6.58-2.84-9.51-4.9l-1.37-1.09
		c-2.92-2.6-5.28-5.76-6.96-9.29c-1.41-3.22-2.37-6.61-2.87-10.09c0-0.06,0-0.11,0-0.17c-0.18-1.94-0.18-1.94,1.55-2.74
		c3.15-1.04,6.38-1.83,9.66-2.37c3.23-0.34,6.49-0.23,9.68,0.33c3.38,0.72,6.6,2.04,9.52,3.89l2.09,1.48
		c0.82,0.74,1.63,1.48,2.45,2.25c1.81,1.79,3.45,3.74,4.9,5.83l0.76,1.22c2.14,3.43,3.87,7.09,5.14,10.93
		c0.12-0.73,0.17-1.43,0.22-2.12c0.18-2.92,0.35-5.85,0.53-8.77c0.08-1.46,0.16-2.92,0.26-4.38c0-0.43-0.2-0.62-0.5-0.82
		c-2.13-1.62-4.13-3.39-5.99-5.31c-2.59-2.64-4.9-5.54-6.89-8.66c-0.99-1.8-1.93-3.62-2.78-5.48c-0.47-1.41-0.92-2.83-1.39-4.24
		c-1.52-5.79-1.06-11.92,1.31-17.42c1.17-2.74,2.64-5.35,4.37-7.78c0.16-0.35,0.58-0.51,0.93-0.35c0.03,0.01,0.05,0.02,0.07,0.04
		c1.38,0.57,2.77,1.1,4.16,1.63c2.35,1.12,4.61,2.44,6.74,3.93c3.84,2.72,6.96,6.33,9.09,10.52c1.14,2.53,1.94,5.21,2.36,7.96
		c0.62,4.57,0.4,9.21-0.65,13.7c-0.55,2.42-1.27,4.81-2.13,7.14c-0.23,0.54-0.47,1.07-0.69,1.63c-0.43,0.72-0.75,1.51-0.93,2.34
		c-0.11,1.85,0,3.72,0.08,5.59c-0.11,1.32-0.11,2.64,0,3.95c0.82-1.37,1.75-2.63,2.57-3.95c0.95-1.14,1.89-2.29,2.83-3.44
		c2.09-2.23,4.38-4.27,6.83-6.09l2.83-1.74c3.03-1.62,6.3-2.77,9.68-3.38c3.22-0.45,6.48-0.45,9.69,0c1.98,0.37,3.93,0.85,5.85,1.42
		c0.49,0.16,0.72,0.37,0.67,0.91c-0.09,0.93-0.11,1.86-0.16,2.79c-0.38,3.2-1.03,6.36-1.96,9.45c-0.79,2.04-1.73,4.02-2.82,5.93
		c-2.71,4.39-6.62,7.91-11.26,10.15c-3.12,1.48-6.44,2.51-9.85,3.06c-5.29,0.87-10.69,0.89-15.99,0.07
		c-0.39-0.06-0.71-0.11-0.82,0.48c-0.47,3.09-1.15,6.14-1.8,9.19c-0.23,0.87-0.45,1.75-0.68,2.62l-2.06,7.08
		c-0.46,1.06-0.83,2.15-1.11,3.27c-0.08,0.06-0.13,0.11,0,0.2l0.1-0.12c1.36-1.19,2.69-2.45,4.08-3.58c2.8-2.26,5.81-4.25,8.98-5.95
		c2.79-1.34,5.68-2.45,8.65-3.31c0.29,0,0.6,0,0.86-0.2c3.18-0.64,6.43-0.89,9.68-0.74l5.29,0.89l4.38,1.49
		C149.75,94.92,152.92,96.86,155.8,99.18z"/>
</g>
<g id="Layer_2">
</g>
</svg>
