<?xml version="1.0" encoding="utf-8"?>
<!-- Generator: Adobe Illustrator 24.0.1, SVG Export Plug-In . SVG Version: 6.00 Build 0)  -->
<svg version="1.1" id="Layer_1" xmlns="http://www.w3.org/2000/svg" xmlns:xlink="http://www.w3.org/1999/xlink" x="0px" y="0px"
	 viewBox="0 0 291 291" style="enable-background:new 0 0 291 291;" xml:space="preserve">
<style type="text/css">
	.st0{fill:#828383;}
</style>
<g>
	<g>
		<g>
			<path class="st0" d="M48.3,91.8c-5.1,0-9.7-3.4-11.1-8.5c-1.6-6.1,2-12.4,8.2-14l161.9-42.7c6.1-1.6,12.4,2,14,8.2
				c1.6,6.1-2,12.4-8.2,14L51.2,91.4C50.3,91.7,49.3,91.8,48.3,91.8z"/>
		</g>
		<g>
			<path class="st0" d="M246.1,268.4c-5.5,0-10.4-4-11.3-9.6L199,41.8c-1-6.2,3.2-12.1,9.4-13.2c6.2-1,12.1,3.2,13.2,9.4l35.9,217
				c1,6.2-3.2,12.1-9.4,13.2C247.4,268.3,246.8,268.4,246.1,268.4z"/>
		</g>
		<g>
			<path class="st0" d="M246.2,270.5c-0.8,0-1.6-0.1-2.4-0.3L43.7,227.7c-6.2-1.3-10.1-7.4-8.8-13.6c1.3-6.2,7.4-10.1,13.6-8.8
				l200.1,42.6c6.2,1.3,10.1,7.4,8.8,13.6C256.2,266.9,251.5,270.5,246.2,270.5z"/>
		</g>
		<g>
			<path class="st0" d="M43.2,226.8c-0.2,0-0.3,0-0.5,0c-6.3-0.3-11.2-5.6-10.9-11.9l5.8-133.1c0.3-6.3,5.6-11.2,11.9-10.9
				c6.3,0.3,11.2,5.6,10.9,11.9l-5.8,133.1C54.4,222,49.3,226.8,43.2,226.8z"/>
		</g>
	</g>
	<g>
		<g>
			<g>
				<rect x="214" y="222.6" class="st0" width="55.4" height="53"/>
				<path class="st0" d="M269.4,278.5H214l-2.9-2.9v-53l2.9-2.9h55.4l2.9,2.9v53L269.4,278.5z M216.9,272.8h49.6v-47.3h-49.6V272.8z
					"/>
			</g>
			<g>
				<rect x="225.5" y="232.2" class="st0" width="34.4" height="31.9"/>
				<path class="st0" d="M259.9,267h-34.4l-2.9-2.9v-31.9l2.9-2.9h34.4l2.9,2.9v31.9L259.9,267z M228.3,261.3H257v-26.2h-28.7V261.3
					z"/>
			</g>
		</g>
		<g>
			<g>
				<rect x="182.6" y="13.4" class="st0" width="55.4" height="53"/>
				<path class="st0" d="M238,69.3h-55.4l-2.9-2.9v-53l2.9-2.9H238l2.9,2.9v53L238,69.3z M185.5,63.5h49.6V16.2h-49.6V63.5z"/>
			</g>
			<g>
				<rect x="194.1" y="23" class="st0" width="34.4" height="31.9"/>
				<path class="st0" d="M228.5,57.8h-34.4l-2.9-2.9V23l2.9-2.9h34.4l2.9,2.9v31.9L228.5,57.8z M196.9,52.1h28.7V25.9h-28.7V52.1z"
					/>
			</g>
		</g>
		<g>
			<g>
				<rect x="21.3" y="188.8" class="st0" width="55.4" height="53"/>
				<path class="st0" d="M76.7,244.7H21.3l-2.9-2.9v-53l2.9-2.9h55.4l2.9,2.9v53L76.7,244.7z M24.2,239h49.6v-47.3H24.2V239z"/>
			</g>
			<g>
				<rect x="32.8" y="198.5" class="st0" width="34.4" height="31.9"/>
				<path class="st0" d="M67.2,233.3H32.8l-2.9-2.9v-31.9l2.9-2.9h34.4l2.9,2.9v31.9L67.2,233.3z M35.6,227.5h28.7v-26.2H35.6V227.5
					z"/>
			</g>
		</g>
		<g>
			<g>
				<rect x="20.6" y="55.8" class="st0" width="55.4" height="53"/>
				<path class="st0" d="M76,111.7H20.6l-2.9-2.9v-53l2.9-2.9H76l2.9,2.9v53L76,111.7z M23.5,105.9h49.6V58.6H23.5V105.9z"/>
			</g>
			<g>
				<rect x="32.1" y="65.4" class="st0" width="34.4" height="31.9"/>
				<path class="st0" d="M66.5,100.2H32.1l-2.9-2.9V65.4l2.9-2.9h34.4l2.9,2.9v31.9L66.5,100.2z M35,94.5h28.7V68.3H35V94.5z"/>
			</g>
		</g>
	</g>
</g>
</svg>
