<?xml version="1.0" encoding="utf-8"?>
<!-- Generator: Adobe Illustrator 19.0.0, SVG Export Plug-In . SVG Version: 6.00 Build 0)  -->
<svg version="1.1" id="Layer_1" xmlns="http://www.w3.org/2000/svg" xmlns:xlink="http://www.w3.org/1999/xlink" x="0px" y="0px"
	 viewBox="0 0 612 792" style="enable-background:new 0 0 612 792;" xml:space="preserve">
<style type="text/css">
	.st0{fill:#FFFFFF;}
</style>
<path id="XMLID_9_" d="M306,567.8c-100,0-181.3-81.3-181.3-181.3c0-100,81.3-181.3,181.3-181.3c100,0,181.3,81.3,181.3,181.3
	C487.3,486.4,406,567.8,306,567.8z M306,225.1c-88.9,0-161.3,72.4-161.3,161.3c0,89,72.4,161.3,161.3,161.3
	c88.9,0,161.3-72.4,161.3-161.3C467.3,297.5,394.9,225.1,306,225.1z"/>
<g id="XMLID_8_">
	<circle id="XMLID_4_" class="st0" cx="306" cy="386.5" r="100.1"/>
	<path id="XMLID_5_" d="M306,496.6c-60.7,0-110.1-49.4-110.1-110.1c0-60.7,49.4-110.1,110.1-110.1c60.7,0,110.1,49.4,110.1,110.1
		C416.1,447.2,366.7,496.6,306,496.6z M306,296.3c-49.7,0-90.1,40.4-90.1,90.1s40.4,90.1,90.1,90.1s90.1-40.4,90.1-90.1
		S355.7,296.3,306,296.3z"/>
</g>
</svg>
