<?xml version="1.0" encoding="utf-8"?>
<!-- Generator: Adobe Illustrator 24.0.1, SVG Export Plug-In . SVG Version: 6.00 Build 0)  -->
<svg version="1.1" id="Layer_1" xmlns="http://www.w3.org/2000/svg" xmlns:xlink="http://www.w3.org/1999/xlink" x="0px" y="0px"
	 viewBox="0 0 291 291" style="enable-background:new 0 0 291 291;" xml:space="preserve">
<style type="text/css">
	.st0{fill:#999999;}
</style>
<g>
	<path class="st0" d="M225.3,73c-48.1-48.1-113.8-44.1-161.1,1.3L35.9,46c-1.8-1.8-4-2.2-5.8-0.9c-2.2,0.9-4,2.2-4,4L12.5,160.2
		c0,1.8,0,3.1,1.8,4.9c1.8,1.8,3.1,1.8,4.9,1.8l111.1-13.5c1.8,0,3.1-1.8,4-4c0.9-2.2,0-4.9-0.9-5.8l-28.3-28.3
		c61.6-60.7,106.6-42.7,119.7-41.4C227.1,74.3,226.7,74.3,225.3,73z"/>
	<path class="st0" d="M65.1,216c48.1,48.1,113.8,44.1,160.6-1.3l28.3,28.3c1.8,1.8,4,2.2,5.8,0.9c2.2-0.9,4-2.2,4-4l13.5-111.1
		c0-1.8,0-3.1-1.8-4.9c-1.8-1.8-3.1-1.8-4.9-1.8l-111.1,13.5c-1.8,0-3.1,1.8-4,4c-0.9,2.2,0,4.9,0.9,5.8l28.3,28.3
		C123.6,234.5,79.1,216.9,66,215.6C63.3,214.7,63.8,214.7,65.1,216z"/>
</g>
</svg>
